<?xml version="1.0" standalone="no"?>
<!DOCTYPE svg PUBLIC "-//W3C//DTD SVG 20010904//EN"
 "http://www.w3.org/TR/2001/REC-SVG-20010904/DTD/svg10.dtd">
<svg version="1.0" xmlns="http://www.w3.org/2000/svg"
 width="2500.000000pt" height="2500.000000pt" viewBox="0 0 2500.000000 2500.000000"
 preserveAspectRatio="xMidYMid meet">
<metadata>
Created by potrace 1.11, written by Peter Selinger 2001-2013
</metadata>
<g transform="translate(0.000000,2500.000000) scale(0.100000,-0.100000)"
fill="#000000" stroke="none">
<path d="M12280 24925 c-19 -7 -98 -35 -175 -63 -341 -121 -752 -268 -891
-318 -83 -30 -154 -54 -158 -54 -5 0 -22 -6 -39 -14 -18 -8 -117 -45 -222 -81
-104 -37 -244 -87 -310 -110 -66 -24 -167 -60 -225 -80 -58 -20 -121 -43 -140
-50 -19 -8 -138 -51 -265 -95 -126 -45 -297 -105 -380 -135 -82 -30 -222 -80
-310 -111 -88 -31 -209 -75 -270 -96 -60 -22 -114 -41 -120 -42 -5 -2 -17 -6
-25 -9 -8 -4 -80 -29 -160 -57 -80 -28 -167 -59 -195 -69 -133 -49 -197 -72
-280 -101 -181 -64 -260 -92 -280 -100 -11 -5 -137 -50 -280 -100 -285 -101
-632 -224 -850 -302 -177 -64 -363 -129 -485 -172 -52 -19 -151 -54 -220 -79
-126 -45 -1307 -467 -1605 -572 -260 -92 -1293 -461 -1520 -542 -115 -42 -235
-84 -265 -94 -30 -10 -100 -35 -155 -55 -55 -20 -161 -58 -235 -84 -74 -26
-245 -87 -380 -136 -135 -48 -299 -106 -365 -130 -66 -23 -178 -63 -250 -89
-71 -26 -157 -56 -190 -67 -33 -11 -69 -24 -80 -28 -11 -5 -62 -24 -113 -41
l-93 -32 6 -51 c7 -54 10 -82 19 -161 3 -27 8 -72 11 -100 12 -98 15 -122 29
-245 8 -69 17 -152 21 -185 3 -33 8 -71 10 -85 2 -14 7 -52 10 -85 3 -33 8
-73 10 -90 2 -16 7 -52 9 -80 3 -27 8 -70 11 -95 11 -101 15 -129 25 -215 6
-49 13 -110 16 -135 3 -25 9 -79 14 -120 5 -41 12 -100 15 -130 13 -120 20
-178 30 -257 2 -21 14 -121 25 -223 11 -102 23 -201 25 -220 9 -67 17 -135 20
-165 3 -42 16 -155 20 -185 2 -14 6 -43 9 -65 3 -22 8 -67 11 -100 3 -33 8
-73 10 -90 2 -16 7 -55 10 -86 3 -31 7 -65 9 -75 2 -11 7 -53 11 -94 3 -41 8
-82 10 -90 2 -8 6 -44 10 -80 3 -36 7 -76 9 -90 2 -14 7 -52 11 -85 4 -33 8
-73 10 -90 2 -16 7 -55 10 -86 3 -31 7 -65 9 -75 2 -11 7 -53 11 -94 4 -41 8
-82 10 -90 1 -8 6 -46 10 -85 4 -38 8 -77 10 -85 2 -9 6 -45 9 -81 4 -36 8
-76 11 -90 2 -13 6 -53 9 -89 4 -36 8 -76 10 -90 2 -14 7 -52 11 -85 9 -86 14
-124 20 -172 5 -42 21 -190 31 -273 2 -25 6 -58 9 -75 2 -16 7 -57 10 -90 3
-33 8 -71 10 -85 2 -14 7 -52 10 -85 3 -33 8 -76 10 -95 9 -73 15 -117 20
-165 3 -27 7 -66 10 -85 2 -19 7 -57 10 -85 14 -124 16 -142 20 -175 3 -19 7
-62 10 -95 7 -69 13 -119 20 -155 2 -14 7 -55 10 -91 3 -36 7 -76 10 -90 2
-13 6 -53 10 -89 4 -36 8 -78 10 -95 3 -16 7 -55 10 -85 3 -30 8 -66 10 -80 2
-14 7 -53 10 -87 3 -34 7 -70 9 -80 2 -10 7 -52 11 -93 4 -41 9 -84 11 -95 2
-11 6 -42 9 -70 2 -27 7 -68 10 -90 5 -39 11 -97 20 -180 9 -83 42 -364 51
-435 3 -25 7 -61 9 -80 2 -19 6 -55 9 -80 6 -57 18 -157 21 -190 1 -14 5 -43
8 -65 4 -22 9 -67 12 -100 4 -33 8 -73 10 -90 2 -16 7 -55 10 -86 3 -31 7 -65
9 -75 2 -11 7 -50 10 -89 4 -38 8 -81 11 -95 2 -14 7 -52 10 -85 3 -33 8 -73
10 -90 2 -16 7 -57 10 -90 3 -33 7 -71 10 -85 5 -29 10 -70 31 -260 2 -25 7
-58 9 -75 2 -16 7 -57 10 -90 8 -81 15 -145 20 -175 2 -14 6 -54 10 -90 4 -36
8 -76 10 -90 2 -14 11 -88 20 -165 23 -206 25 -223 35 -305 5 -41 12 -102 15
-135 5 -55 13 -117 20 -155 1 -8 6 -51 9 -95 4 -44 9 -87 11 -95 2 -8 7 -44
10 -80 11 -111 32 -298 40 -350 2 -14 6 -54 10 -90 8 -74 11 -99 18 -155 3
-22 9 -67 12 -100 3 -33 7 -71 10 -85 2 -14 7 -52 10 -85 5 -58 7 -76 21 -180
3 -27 8 -63 9 -80 2 -16 8 -75 15 -130 6 -55 13 -116 15 -135 2 -19 9 -73 14
-120 6 -47 13 -112 16 -145 4 -33 8 -70 10 -81 4 -26 17 -141 30 -264 3 -30 8
-68 10 -85 2 -16 11 -93 20 -170 9 -77 18 -156 21 -175 2 -19 6 -60 9 -90 3
-30 8 -66 10 -80 3 -14 7 -56 11 -95 3 -38 7 -76 9 -85 2 -8 6 -46 10 -85 4
-38 9 -78 11 -87 1 -9 6 -48 9 -85 4 -37 8 -79 10 -93 4 -28 13 -101 20 -170
3 -25 7 -61 10 -80 2 -19 7 -55 9 -80 3 -25 10 -83 15 -130 6 -47 13 -112 16
-145 4 -33 8 -71 10 -85 2 -14 7 -50 10 -80 4 -30 8 -68 10 -85 2 -16 7 -59
11 -95 4 -36 8 -71 9 -79 1 -12 149 -98 425 -249 36 -19 81 -44 100 -55 19
-11 177 -98 350 -194 173 -97 338 -188 365 -203 28 -15 124 -69 215 -119 91
-50 176 -97 190 -105 152 -85 404 -226 440 -245 25 -13 71 -39 103 -57 32 -19
60 -34 63 -34 2 0 21 -10 42 -23 20 -13 69 -41 107 -62 39 -21 124 -68 190
-105 66 -37 145 -81 175 -97 30 -16 75 -41 100 -55 67 -38 611 -340 735 -408
33 -18 69 -39 80 -45 21 -13 101 -57 195 -108 30 -16 69 -37 85 -47 17 -10 57
-32 90 -50 33 -18 76 -42 95 -53 19 -11 58 -32 85 -47 28 -15 167 -93 310
-172 379 -212 428 -239 515 -286 36 -19 97 -53 135 -75 39 -21 97 -54 130 -72
33 -18 276 -153 540 -300 264 -147 509 -283 545 -303 36 -19 99 -54 140 -77
41 -23 102 -57 135 -75 33 -18 94 -52 135 -75 41 -23 104 -58 140 -77 36 -20
114 -64 174 -97 60 -34 110 -61 112 -61 3 0 21 -10 42 -23 20 -13 69 -41 107
-62 39 -21 104 -57 145 -80 67 -37 128 -71 255 -141 22 -12 72 -39 110 -61 39
-22 95 -53 125 -70 61 -33 174 -96 375 -209 39 -21 87 -48 107 -59 51 -28 212
-116 273 -150 100 -56 271 -152 290 -163 92 -53 727 -402 731 -402 2 0 39 20
82 44 42 23 104 58 137 76 33 18 76 42 95 53 19 11 103 57 185 102 83 45 292
161 465 257 173 96 347 192 385 213 39 21 144 80 235 130 91 51 190 106 220
122 148 82 249 138 290 161 25 13 68 37 95 52 28 15 131 72 230 127 255 142
651 361 710 393 28 15 70 39 95 53 54 30 412 227 490 270 30 17 89 49 130 72
41 23 100 56 130 72 62 34 216 120 270 150 19 11 64 36 100 55 36 20 166 92
290 161 124 68 250 138 280 154 30 17 72 40 92 51 21 12 68 38 105 58 37 21
102 56 143 79 117 65 171 95 225 125 48 26 254 140 765 423 129 72 260 144
290 160 30 17 197 109 370 205 173 96 344 191 380 210 36 20 182 101 325 180
143 79 289 160 325 180 64 34 202 111 290 160 25 13 106 58 180 98 74 41 142
79 150 84 8 5 32 18 53 30 22 11 190 104 375 207 186 102 355 196 377 208 200
109 527 292 556 310 36 23 36 25 48 122 14 114 21 168 26 203 2 14 6 48 10 75
8 69 15 124 20 165 3 19 7 53 10 75 2 22 11 96 20 165 9 69 18 145 21 170 3
25 7 56 9 70 2 14 20 156 40 315 19 160 37 304 40 320 2 17 7 53 10 80 3 28 8
66 10 85 13 104 46 368 50 390 3 25 10 73 20 160 10 78 45 364 50 395 2 17 7
53 10 80 4 28 8 61 10 75 2 14 7 57 10 95 4 39 8 77 10 85 3 8 23 161 45 340
22 179 42 341 45 360 4 32 38 304 51 410 2 25 7 56 9 70 2 14 6 48 10 75 5 45
18 149 30 245 3 19 23 181 45 360 44 351 44 354 60 480 6 47 13 101 16 120 2
19 17 141 34 270 16 129 32 260 35 290 3 30 7 66 10 80 7 38 13 89 20 155 3
33 8 71 10 85 2 14 7 45 10 70 3 25 8 61 10 80 3 19 7 55 10 80 5 41 18 149
30 240 3 19 7 55 10 80 3 25 7 61 10 80 3 19 32 251 65 515 33 264 62 496 65
515 6 44 24 194 30 240 2 19 7 53 9 75 3 22 12 96 21 165 9 69 18 141 20 160
3 19 18 145 35 280 30 239 37 299 45 350 2 14 6 52 10 85 3 33 7 71 10 85 2
14 7 48 10 75 3 28 12 100 20 160 8 61 16 128 19 150 24 196 83 668 91 725 11
77 15 107 20 150 5 48 72 581 80 640 2 19 32 253 65 520 33 267 62 501 65 520
2 19 7 53 9 75 3 22 10 78 16 125 6 47 12 99 15 115 5 41 58 465 80 640 2 22
18 148 35 280 17 132 33 260 36 285 3 25 9 77 14 115 6 39 12 90 15 115 3 25
7 61 10 80 2 19 7 55 10 80 3 25 7 61 10 80 10 74 15 117 20 160 3 25 7 61 10
80 34 250 72 586 67 591 -4 3 -115 43 -247 87 -132 45 -413 140 -625 212 -212
72 -488 167 -615 210 -126 43 -430 146 -675 230 -245 83 -542 185 -660 225
-245 83 -559 190 -865 295 -115 39 -241 82 -280 95 -38 13 -223 76 -410 140
-187 64 -378 129 -425 144 -47 16 -265 90 -485 165 -220 76 -445 152 -500 171
-55 18 -253 86 -440 150 -187 64 -385 132 -440 150 -55 18 -253 86 -440 150
-187 64 -466 159 -620 212 -264 89 -392 133 -935 318 -124 42 -250 85 -280 95
-30 10 -127 43 -215 73 -88 31 -367 126 -620 212 -253 86 -552 188 -665 227
-532 181 -681 232 -760 258 -47 16 -215 73 -375 128 -275 94 -292 99 -325 87z"/>
</g>
</svg>
